<svg width="63" height="63" viewBox="0 0 63 63" fill="none" xmlns="http://www.w3.org/2000/svg">
<circle cx="31.5" cy="31.5" r="31.5" fill="#3598DB"/>
<path d="M21.5 14.5C23.7326 14.4994 25.9229 15.1089 27.8343 16.2628C29.7456 17.4166 31.3053 19.0709 32.3447 21.0468C33.3948 19.5629 34.7858 18.3528 36.4006 17.5181C38.0155 16.6834 39.8072 16.2485 41.625 16.25H47.75V20.625C47.75 23.6418 46.5516 26.5351 44.4183 28.6683C42.2851 30.8016 39.3918 32 36.375 32H33.75V33.75H42.5V46C42.5 46.9283 42.1313 47.8185 41.4749 48.4749C40.8185 49.1313 39.9283 49.5 39 49.5H25C24.0717 49.5 23.1815 49.1313 22.5251 48.4749C21.8687 47.8185 21.5 46.9283 21.5 46V33.75H30.25V30.25H26.75C23.5011 30.25 20.3853 28.9594 18.0879 26.6621C15.7906 24.3647 14.5 21.2489 14.5 18V14.5H21.5ZM39 37.25H25V46H39V37.25ZM44.25 19.75H41.625C39.5364 19.75 37.5334 20.5797 36.0565 22.0565C34.5797 23.5334 33.75 25.5364 33.75 27.625V28.5H36.375C37.4092 28.5 38.4332 28.2963 39.3886 27.9006C40.3441 27.5048 41.2122 26.9247 41.9435 26.1935C42.6747 25.4622 43.2548 24.5941 43.6506 23.6386C44.0463 22.6832 44.25 21.6592 44.25 20.625V19.75ZM21.5 18H18C18 20.3206 18.9219 22.5462 20.5628 24.1872C22.2038 25.8281 24.4294 26.75 26.75 26.75H30.25C30.25 24.4294 29.3281 22.2038 27.6872 20.5628C26.0462 18.9219 23.8206 18 21.5 18V18Z" fill="white"/>
</svg>
